<svg width="1024" height="655" viewBox="0 0 1024 655" fill="none" xmlns="http://www.w3.org/2000/svg">
<rect width="1024" height="655" rx="5" fill="#FF418D"/>
<g clip-path="url(#clip0_393_2841)">
<path d="M395.408 182.109C395.408 182.109 349.2 257.78 357.704 358.361C366.208 458.941 424.035 520.643 424.035 520.643C424.035 520.643 473.187 440.135 465.554 349.88C456.621 244.22 395.408 182.109 395.408 182.109Z" fill="#43DDB4"/>
<path d="M426.457 564.833C425.384 564.075 425.384 564.075 423.898 547.568C423.032 537.838 421.83 523.966 420.411 507.334C417.894 477.908 414.436 436.917 410.139 385.496C402.735 296.936 395.419 208.438 395.419 208.438L400.119 207.987C410.045 327.981 429.054 556.401 430.036 562.121L427.828 562.56L426.457 564.833Z" fill="white"/>
<path d="M378.627 268.189L374.632 270.896L405.072 323.055L409.066 320.347L378.627 268.189Z" fill="white"/>
<path d="M445.894 298.557L409.218 370.462L413.353 372.913L450.03 301.007L445.894 298.557Z" fill="white"/>
<path d="M444.265 342.461L411.974 398.595L415.984 401.275L448.276 345.141L444.265 342.461Z" fill="white"/>
<path d="M370.463 360.296L366.514 363.08L415.256 443.392L419.205 440.608L370.463 360.296Z" fill="white"/>
<path d="M441.261 429.491L417.312 463.622L421.075 466.69L445.025 432.559L441.261 429.491Z" fill="white"/>
<path d="M329.557 556.884C325.989 534.264 289.961 533.047 285.613 489.326C281.264 445.605 295.756 451.854 290.927 423.749C286.098 395.645 269.678 403.969 264.369 367.017C259.06 330.065 276.924 330.585 274.509 292.589C272.095 254.594 271.612 227.01 287.064 225.969C287.064 225.969 309.279 220.764 318.451 253.556C327.623 286.347 339.698 318.092 356.598 335.787C373.499 353.482 378.328 373.375 378.328 391.276C378.328 409.177 372.051 431.556 374.948 444.567C377.845 457.579 394.263 460.701 402.472 479.958C410.681 499.215 392.814 527.114 393.297 556.869C393.78 586.625 334.386 587.487 329.557 556.884Z" fill="#35C99E"/>
<path d="M367.517 598.595L365.287 598.465C369.185 519.463 355.861 499.984 345.168 484.33C339.974 476.74 335.067 469.569 332.921 457.055C329.042 434.445 329.75 421.43 330.507 407.653C331.017 398.282 331.542 388.59 330.606 375.312C329.707 362.611 324.868 355.107 319.261 346.422C313.536 337.551 307.047 327.497 304.324 310.01C302.409 297.704 302.637 290.155 302.835 283.493C303.189 271.719 303.444 263.213 291.793 236.305L293.816 235.288C305.692 262.718 305.416 271.919 305.065 283.574C304.869 290.123 304.646 297.545 306.524 309.617C309.164 326.572 315.226 335.966 321.091 345.051C326.644 353.653 331.886 361.778 332.83 375.122C333.777 388.561 333.246 398.334 332.733 407.794C331.993 421.422 331.293 434.294 335.124 456.619C337.176 468.589 341.715 475.222 346.97 482.904C357.867 498.865 371.458 518.732 367.517 598.595Z" fill="white"/>
<path d="M316.579 331.626C314.824 324.725 314.832 317.169 316.605 309.741C316.984 308.16 317.44 306.587 317.882 305.069C318.687 302.296 319.449 299.676 319.8 296.932C320.16 294.133 320.069 291.288 319.532 288.521L321.716 288.03C322.308 291.065 322.409 294.187 322.014 297.259C321.638 300.203 320.814 303.042 320.015 305.786C319.583 307.278 319.132 308.819 318.77 310.34C317.096 317.351 317.083 324.493 318.735 330.993L316.579 331.626Z" fill="white"/>
<path d="M324.168 401.39C322.99 391.588 318.384 382.641 311.291 376.377C307.562 373.107 303.171 370.629 298.921 368.229C297.221 367.269 295.463 366.277 293.76 365.242C288.845 362.255 281.919 357.401 278.536 349.787L280.548 348.747C283.66 355.752 290.205 360.312 294.854 363.149C296.528 364.164 298.272 365.15 299.952 366.101C304.297 368.553 308.804 371.091 312.694 374.512C320.232 381.168 325.126 390.676 326.376 401.093L324.168 401.39Z" fill="white"/>
<path d="M335.07 438.927C334.533 433.262 334.724 427.913 335.625 423.024C337.235 414.396 341.133 406.543 344.915 398.973C347.866 393.034 350.943 386.893 352.835 380.468C355.196 372.407 355.766 363.86 354.498 355.518L356.698 355.128C358.022 363.843 357.428 372.772 354.962 381.194C353.006 387.844 349.892 394.081 346.879 400.118C343.174 407.543 339.343 415.223 337.814 423.501C336.956 428.153 336.779 433.262 337.291 438.689L335.07 438.927Z" fill="white"/>
<path d="M351.416 513.183C347.279 499.669 337.552 488.289 325.394 482.737C323.98 482.092 322.494 481.505 321.059 480.936C317.861 479.669 314.553 478.359 311.616 476.272C307.694 473.482 303.501 467.991 304.587 461.696L306.782 462.136C305.95 466.944 309.228 471.677 312.844 474.265C315.565 476.2 318.607 477.405 321.829 478.68C323.288 479.259 324.798 479.854 326.263 480.522C339.003 486.34 349.197 498.267 353.532 512.429L351.416 513.183Z" fill="white"/>
<path d="M371.517 546.805L369.456 545.882C373.113 536.399 373.124 524.552 369.486 512.524C368.898 510.575 368.214 508.603 367.552 506.698C366.02 502.286 364.437 497.735 363.831 492.923C363.179 487.736 363.622 482.063 365.172 475.575C366.688 469.279 368.987 463.232 372.005 457.599L373.936 458.802C371.02 464.248 368.797 470.093 367.329 476.179C365.84 482.358 365.416 487.728 366.028 492.597C366.599 497.127 368.139 501.56 369.628 505.851C370.299 507.782 370.991 509.78 371.594 511.775C375.396 524.353 375.364 536.792 371.517 546.805Z" fill="white"/>
<path d="M298.86 300.032C295.982 297.372 293.258 294.525 290.704 291.505C287.839 288.123 284.135 282.961 284.993 277.239L287.195 277.624C286.49 282.317 289.8 286.876 292.352 289.886C294.845 292.836 297.503 295.619 300.311 298.219L298.86 300.032Z" fill="white"/>
<path d="M671.869 568.751C678.758 547.039 647.648 527.404 663.207 486.774C678.766 446.144 688.727 459.074 696.941 431.898C705.156 404.721 687.042 403.582 698.755 368.382C710.467 333.182 725.933 342.84 740.653 308.218C755.372 273.596 767.173 249.115 781.209 256.158C781.209 256.158 803.03 263.022 796.559 296.551C790.088 330.08 786.617 364.19 793.622 388.44C800.626 412.69 796.052 432.649 788.119 448.373C780.187 464.096 764.751 480.528 761.529 493.45C758.307 506.372 771.347 517.57 770.022 538.715C768.697 559.86 740.65 575.167 727.867 601.571C715.084 627.975 662.547 598.122 671.869 568.751Z" fill="#35C99E"/>
<path d="M695.941 609.525L694.042 608.264C732.481 540.868 720.197 532.304 717.727 513.042C716.53 503.697 715.398 494.872 719.068 482.774C725.681 460.912 732.071 449.844 738.836 438.125C743.437 430.154 748.196 421.913 753.258 409.766C758.101 398.143 757.172 389.061 756.097 378.539C754.999 367.801 753.755 355.628 759.115 338.863C762.87 327.067 766.43 320.549 769.558 314.798C775.087 304.638 779.082 297.297 780.774 267.668L783.001 267.819C781.276 298.028 776.954 305.971 771.484 316.027C768.407 321.68 764.923 328.087 761.223 339.659C756.027 355.911 757.199 367.286 758.313 378.288C759.386 388.697 760.384 398.528 755.292 410.758C750.168 423.055 745.366 431.365 740.73 439.406C734.037 450.995 727.72 461.959 721.187 483.526C717.686 495.092 718.733 503.266 719.945 512.729C722.456 532.356 734.802 541.386 695.941 609.525Z" fill="white"/>
<path d="M760.308 364.175C761.827 357.21 765.188 350.565 770.033 344.962C771.066 343.768 772.163 342.623 773.225 341.515C775.162 339.491 776.981 337.583 778.515 335.354C780.07 333.082 781.25 330.539 782.003 327.836L784.149 328.527C783.324 331.497 782.029 334.292 780.321 336.788C778.684 339.182 776.702 341.249 774.784 343.25C773.743 344.337 772.665 345.462 771.672 346.61C767.093 351.907 763.916 358.175 762.487 364.736L760.308 364.175Z" fill="white"/>
<path d="M736.054 429.373C739.367 420.157 739.288 409.925 735.834 400.769C734.008 395.978 731.247 391.536 728.578 387.243C727.505 385.525 726.405 383.747 725.359 381.96C722.365 376.805 718.432 368.975 718.834 360.543L721.064 360.668C720.691 368.423 724.417 375.804 727.25 380.685C728.269 382.44 729.364 384.201 730.424 385.889C733.154 390.284 735.977 394.827 737.889 399.84C741.558 409.57 741.641 420.442 738.123 430.235L736.054 429.373Z" fill="white"/>
<path d="M728.996 467.962C731.038 462.708 733.573 458.105 736.532 454.277C741.758 447.517 748.668 442.642 755.353 437.929C760.587 434.24 766.001 430.411 770.513 425.745C776.162 419.881 780.451 412.666 783.033 404.684L785.142 405.473C782.443 413.813 777.962 421.351 772.061 427.479C767.396 432.311 761.894 436.191 756.574 439.941C750.028 444.568 743.257 449.333 738.246 455.815C735.429 459.461 733.01 463.859 731.054 468.89L728.996 467.962Z" fill="white"/>
<path d="M710.443 541.612C712.799 527.611 709.298 512.602 701.078 501.467C700.12 500.172 699.077 498.891 698.068 497.654C695.817 494.895 693.494 492.041 691.839 488.69C689.631 484.22 688.378 477.237 692.126 472.267L693.856 473.782C690.997 477.579 691.769 483.439 693.808 487.56C695.34 490.659 697.478 493.285 699.742 496.063C700.77 497.324 701.832 498.628 702.822 499.967C711.436 511.636 715.106 527.366 712.638 542.037L710.443 541.612Z" fill="white"/>
<path d="M713.185 581.493L711.784 579.622C719.199 573.171 724.46 562.771 726.598 550.332C726.944 548.308 727.215 546.232 727.481 544.214C728.09 539.55 728.723 534.727 730.316 530.199C732.041 525.307 734.944 520.551 739.193 515.658C743.316 510.908 748.016 506.779 753.164 503.384L754.329 505.437C749.352 508.715 744.808 512.703 740.821 517.292C736.776 521.953 734.021 526.452 732.403 531.043C730.896 535.32 730.281 540.007 729.688 544.543C729.42 546.585 729.152 548.695 728.79 550.76C726.558 563.771 721.015 574.683 713.185 581.493Z" fill="white"/>
<path d="M758.744 327.295C757.397 323.476 756.266 319.572 755.359 315.605C754.345 311.158 753.376 304.716 756.668 300.13L758.43 301.602C755.732 305.361 756.622 311.069 757.526 315.03C758.41 318.902 759.513 322.712 760.829 326.439L758.744 327.295Z" fill="white"/>
<path d="M249.778 594.678C244.367 555.62 266.786 540.212 262.148 520.423C257.509 500.635 222.713 491.116 221.178 462.13C219.644 433.143 236.048 431.261 233.25 405.959C230.452 380.656 210.356 376.489 213.447 358.993C216.537 341.498 240.034 331.499 256.114 346.494C272.194 361.489 281.473 409.735 299.251 416.856C317.029 423.978 354.911 417.955 372.689 446.38C390.467 474.806 390.47 515.395 381.966 538.842C373.462 562.288 377.327 586.975 377.327 586.975L249.778 594.678Z" fill="#43DDB4"/>
<path d="M300.63 595.438L305.054 593.92C300.727 579.267 301.518 586.348 309.413 575.808C318.577 563.575 324.573 548.673 327.234 531.512C330.292 511.796 327.366 484.718 309.054 473.294C305.513 471.085 301.558 469.656 297.373 468.138C289.951 465.455 282.275 462.677 275.856 455.185C270.442 448.861 270.397 436.486 270.359 426.543C270.359 425.432 270.359 424.354 270.338 423.319C270.241 414.517 268.06 392.734 249.95 380.61L247.498 384.86C263.644 395.68 265.592 415.402 265.681 423.38C265.681 424.403 265.697 425.467 265.699 426.56C265.742 437.371 265.793 450.825 272.43 458.577C279.655 467.011 288.274 470.142 295.882 472.883C299.839 474.329 303.578 475.668 306.712 477.622C322.969 487.765 325.453 512.545 322.641 530.685C320.114 546.984 314.443 561.106 305.786 572.66C296 585.743 296.566 581.678 300.63 595.438Z" fill="white"/>
<path d="M167.903 483.509C167.903 483.509 195.803 541.337 257.378 570.852C318.953 600.368 375.205 582.872 375.205 582.872C375.205 582.872 345.535 521.36 290.264 494.869C225.58 463.859 167.903 483.509 167.903 483.509Z" fill="#64EDCC"/>
<path d="M401.831 596.736C401.007 597.205 401.007 597.205 390.872 592.399C384.898 589.574 376.386 585.524 366.191 580.652C348.161 572.035 323.062 559.995 291.592 544.871C237.384 518.833 183.256 492.741 183.256 492.741L184.643 489.399C258.043 524.775 397.823 592.026 401.492 593.365L400.977 595.013L401.831 596.736Z" fill="white"/>
<path d="M253.231 522.787L212.162 525.092L212.338 528.744L253.408 526.44L253.231 522.787Z" fill="white"/>
<path d="M256.357 488.277L253.48 490.216L282.51 540.269L285.387 538.33L256.357 488.277Z" fill="white"/>
<path d="M281.47 504.881L278.503 506.656L299.889 548.205L302.856 546.43L281.47 504.881Z" fill="white"/>
<path d="M326.893 558.057L262.996 562.885L263.233 566.533L327.13 561.706L326.893 558.057Z" fill="white"/>
<path d="M331.282 537.746L328.173 539.218L339.662 567.4L342.771 565.927L331.282 537.746Z" fill="white"/>
<path d="M855.84 440.742C855.84 440.742 779.921 435 710.035 486.851C640.15 538.703 620.606 615.276 620.606 615.276C620.606 615.276 701.376 621.379 764.091 574.848C837.494 520.377 855.84 440.742 855.84 440.742Z" fill="#43DDB4"/>
<path d="M621.645 611.977C621.717 610.719 621.717 610.719 633.153 602.146C639.895 597.092 617.186 614.886 628.738 606.298C649.171 591.101 677.661 569.976 713.413 543.508C774.988 497.92 836.547 452.429 836.547 452.429L838.961 456.229C755.48 517.899 628.949 610.447 625.204 613.81L623.903 612.13L621.645 611.977Z" fill="white"/>
<path d="M781.601 462.509L756.9 511.542L760.656 513.74L785.357 464.706L781.601 462.509Z" fill="white"/>
<path d="M792.917 535.417L723.981 536.104L724.02 540.71L792.956 540.023L792.917 535.417Z" fill="white"/>
<path d="M704.58 550.837L704.396 555.439L759.836 558.006L760.019 553.404L704.58 550.837Z" fill="white"/>
<path d="M710.469 496.4L673.277 573.503L677.069 575.628L714.261 498.524L710.469 496.4Z" fill="white"/>
<path d="M659.415 584.321L658.838 588.885L694.458 594.123L695.036 589.56L659.415 584.321Z" fill="white"/>
<path d="M570.521 561.215C545.106 557.19 541.372 546.963 535.88 532.879C530.389 518.795 524.13 501.941 526.386 484.648C528.642 467.354 537.098 471.689 539.585 452.62C542.072 433.551 521.611 430.449 525.367 406.1C529.123 381.752 561.701 373.93 564.343 353.67C566.986 333.41 551.826 332.936 554.771 306.034C557.717 279.133 584.012 284.945 585.568 268.773C587.124 252.601 575.259 252.624 585.501 219.538C595.744 186.452 636.276 199.877 640.52 227.877C644.764 255.877 629.599 255.392 627.107 274.46C624.614 293.529 648.16 298.919 645.518 319.182C642.875 339.445 622.511 344.256 620.18 362.133C617.849 380.011 644.007 391.267 641.373 420.037C638.738 448.806 616.467 442.393 614.136 460.271C611.805 478.148 634.307 479.128 631.616 495.126C628.925 511.125 617.454 538.558 608.081 549.898C598.708 561.238 594.829 565.064 570.521 561.215Z" fill="#43DDB4"/>
<path d="M612.105 217.083L572.395 549.35L575.122 549.728L614.832 217.461L612.105 217.083Z" fill="white"/>
<path d="M594.957 241.66L592.492 242.974L605.274 270.836L607.739 269.523L594.957 241.66Z" fill="white"/>
<path d="M607.03 280.96L604.784 279.249L623.075 251.329L623.093 238.465L625.843 238.471L625.822 252.269L607.03 280.96Z" fill="white"/>
<path d="M633.03 246.964L623.99 250.408L624.907 253.202L633.946 249.758L633.03 246.964Z" fill="white"/>
<path d="M580.805 309.106L578.134 309.813L593.181 375.789L595.851 375.081L580.805 309.106Z" fill="white"/>
<path d="M592.028 308.058L583.756 331.654L586.328 332.702L594.601 309.106L592.028 308.058Z" fill="white"/>
<path d="M619.999 398.462L585.922 438.11L587.94 440.124L622.016 400.476L619.999 398.462Z" fill="white"/>
<path d="M610.588 394.478L608.254 412.376L610.977 412.789L613.311 394.891L610.588 394.478Z" fill="white"/>
<path d="M617.597 422.67L597.272 425.371L597.609 428.313L617.934 425.611L617.597 422.67Z" fill="white"/>
<path d="M550.179 400.824L547.66 402.012L580.5 482.914L583.02 481.726L550.179 400.824Z" fill="white"/>
<path d="M565.699 404.035L562.596 438.457L565.333 438.744L568.436 404.322L565.699 404.035Z" fill="white"/>
<path d="M545.101 411.797L543.569 414.257L556.697 423.755L558.23 421.294L545.101 411.797Z" fill="white"/>
<path d="M608.101 489.498L575.593 526.42L577.588 528.46L610.095 491.538L608.101 489.498Z" fill="white"/>
<path d="M596.423 488.625L594.198 505.687L596.921 506.099L599.146 489.037L596.423 488.625Z" fill="white"/>
<path d="M613.811 495.462L600.321 498.771L600.931 501.661L614.421 498.352L613.811 495.462Z" fill="white"/>
<path d="M619.439 314.557L597.936 337.595L599.875 339.697L621.377 316.658L619.439 314.557Z" fill="white"/>
<path d="M612.835 322.429L612.453 325.364L620.475 326.58L620.858 323.645L612.835 322.429Z" fill="white"/>
<path d="M713.823 589.45C719.725 546.914 695.313 530.133 700.354 508.577C705.394 487.022 743.276 476.659 744.974 445.094C746.672 413.528 728.779 411.472 731.829 383.914C734.879 356.356 756.778 351.82 753.395 332.765C750.012 313.711 724.441 302.819 706.926 319.153C689.411 335.486 679.308 388.029 659.945 395.775C640.581 403.521 599.33 396.969 579.964 427.927C560.598 458.886 560.601 503.104 569.864 528.626C579.127 554.149 574.913 581.047 574.913 581.047L713.823 589.45Z" fill="#64EDCC"/>
<path d="M655.878 605.529L651.049 603.875C655.762 587.918 657.487 580.377 648.884 568.889C638.902 555.569 632.372 539.336 629.475 520.649C626.146 499.175 629.333 469.685 649.278 457.241C653.133 454.838 657.439 453.279 662 451.628C670.083 448.705 678.442 445.678 685.433 437.518C691.334 430.634 691.38 417.154 691.42 406.326C691.42 405.117 691.42 403.943 691.442 402.816C691.546 393.228 693.923 369.504 713.633 356.299L716.315 360.925C698.728 372.708 696.606 394.176 696.509 402.876C696.509 403.993 696.493 405.152 696.488 406.346C696.445 418.12 696.389 432.771 689.159 441.214C681.291 450.4 671.901 453.797 663.62 456.795C659.309 458.354 655.237 459.828 651.816 461.956C634.111 473.005 631.407 499.993 634.47 519.747C637.223 537.497 643.398 552.88 652.825 565.46C663.486 579.718 660.291 590.54 655.878 605.529Z" fill="white"/>
<path d="M636.608 528.123C636.627 533.488 637.807 538.774 640.056 543.56H373.735L368.051 538.356V516.424L374.771 512.342L496.528 512.761L640.064 513.264C637.303 518.85 636.608 522.895 636.608 528.123Z" fill="#FFFEFF"/>
<path opacity="0.15" d="M636.608 528.123C636.627 533.488 637.807 538.774 640.056 543.56H487.515C485.259 538.777 484.077 533.489 484.065 528.123C484.065 522.896 484.749 518.851 487.515 513.27L496.528 512.761L640.064 513.264C637.303 518.851 636.608 522.896 636.608 528.123Z" fill="black"/>
<path d="M377.255 513.629H644.074V509.101H373.824C368.434 509.101 363.536 513.854 363.536 528.114C363.536 542.375 368.434 547.125 373.824 547.125H644.074V542.6H377.255C372.356 542.6 368.453 539.83 367.946 528.117C368.453 516.401 372.356 513.629 377.255 513.629Z" fill="#2E3D5B"/>
<path opacity="0.15" d="M644.082 509.106H491.418V513.831H644.082V509.106Z" fill="black"/>
<path opacity="0.15" d="M644.082 542.404H491.418V547.128H644.082V542.404Z" fill="black"/>
<path d="M353.621 490.09C353.602 495.455 352.422 500.741 350.173 505.527H608.18L613.865 500.323V478.391L607.158 474.309L493.725 474.731L350.187 475.234C352.928 480.817 353.621 484.862 353.621 490.09Z" fill="#FFFEFF"/>
<path d="M623.281 489.763C623.203 483.338 621.618 476.237 617.932 470.911L464.961 471.07H347.024V475.589H461.386C463.99 480.985 464.669 484.975 464.669 490.09C464.636 495.09 463.595 500.023 461.619 504.547H347.024V509.098H613.865V508.919H617.921C621.607 503.596 623.193 496.486 623.27 490.067C623.27 490.015 623.27 489.963 623.27 489.913C623.27 489.864 623.281 489.815 623.281 489.763Z" fill="#415682"/>
<path opacity="0.15" d="M623.276 490.009C623.276 489.957 623.276 489.905 623.276 489.856C623.198 483.428 621.612 476.327 617.927 471.001H463.942C467.966 478.319 468.301 483.584 468.336 490.018C468.301 496.451 467.971 501.716 463.942 509.035H617.927C621.612 503.711 623.198 496.601 623.276 490.183C623.281 490.113 623.276 490.058 623.276 490.009Z" fill="black"/>
<path d="M623.954 566.145C623.973 560.779 625.153 555.492 627.402 550.705H369.392L363.707 555.91V577.841L370.414 581.926L483.85 581.504L627.385 581.001C624.646 575.415 623.954 571.373 623.954 566.145Z" fill="#FFFEFF"/>
<path d="M354.291 566.469C354.372 572.894 355.957 579.995 359.64 585.321L512.611 585.162H630.538V580.643H516.195C513.59 575.247 512.911 571.257 512.911 566.145C512.946 561.145 513.986 556.213 515.961 551.688H630.548V547.134H363.707V547.314H359.651C355.968 552.64 354.382 559.747 354.302 566.165C354.302 566.218 354.302 566.27 354.302 566.322C354.302 566.374 354.291 566.417 354.291 566.469Z" fill="#F8DBA6"/>
<path opacity="0.15" d="M354.297 566.226C354.297 566.275 354.297 566.327 354.297 566.379C354.377 572.804 355.962 579.905 359.646 585.231H513.63C509.606 577.913 509.271 572.645 509.236 566.214C509.271 559.781 509.603 554.516 513.63 547.195H359.646C355.962 552.521 354.377 559.628 354.297 566.047C354.291 566.122 354.297 566.174 354.297 566.226Z" fill="black"/>
<path d="M632.772 425.484V403.573L627.088 398.369H369.078C369.234 398.678 369.372 398.998 369.491 399.326C371.49 403.851 372.531 408.797 372.539 413.809C372.539 418.874 371.873 422.844 369.269 428.289C369.198 428.41 369.134 428.535 369.078 428.665L484.727 429.044L512.627 429.145L626.052 429.59L632.772 425.484Z" fill="#FFFEFF"/>
<path d="M642.175 414.118V413.812C642.111 407.375 640.523 400.289 636.839 394.948H632.772V394.792H365.931V399.343H480.534C482.501 403.88 483.54 408.819 483.582 413.826C483.582 418.927 482.884 422.931 480.28 428.306H365.931V432.826H483.869L636.839 432.996C640.523 427.641 642.111 420.554 642.175 414.118Z" fill="#DF4E71"/>
<path opacity="0.15" d="M487.236 413.982C487.203 408.607 486.981 404.019 484.566 398.438C484.057 397.252 483.485 396.098 482.852 394.983L365.931 394.844V399.433H369.491L480.534 399.329C480.534 399.329 480.883 417.646 466.145 420.864C451.884 423.978 403.827 425.109 370.03 426.716C369.808 427.266 369.553 427.812 369.269 428.396H365.931V432.912H482.917C483.587 431.698 484.192 430.443 484.727 429.154C486.981 423.706 487.203 419.219 487.236 413.982Z" fill="black"/>
<path d="M610.721 463.414V441.503L605.036 436.298H347.024C347.181 436.607 347.319 436.927 347.437 437.255C349.437 441.78 350.479 446.727 350.487 451.738C350.487 456.804 349.819 460.774 347.214 466.219C347.153 466.323 347.088 466.459 347.024 466.594L462.673 466.973L490.573 467.074L603.998 467.52L610.721 463.414Z" fill="#FFFEFF"/>
<path d="M620.124 452.042V451.753C620.059 445.317 618.471 438.23 614.788 432.889H610.721V432.719H343.885V437.27H458.486C460.453 441.806 461.493 446.745 461.536 451.753C461.536 456.853 460.836 460.858 458.233 466.233H343.885V470.752H461.815L614.788 470.923C618.471 465.571 620.059 458.484 620.124 452.042Z" fill="#F8DBA6"/>
<path opacity="0.15" d="M465.181 451.912C465.152 446.537 464.929 441.948 462.515 436.368C462.004 435.178 461.432 434.019 460.801 432.898L343.88 432.759V437.348H347.437L458.48 437.244C458.48 437.244 458.829 455.561 444.093 458.779C429.829 461.893 381.772 463.024 347.976 464.631C347.756 465.181 347.501 465.727 347.214 466.311H343.885V470.836H460.868C461.54 469.623 462.145 468.368 462.679 467.077C464.929 461.633 465.141 457.148 465.181 451.912Z" fill="black"/>
<path d="M340.647 349.666V327.755L346.332 322.55H604.341C604.186 322.86 604.048 323.179 603.928 323.507C601.93 328.032 600.889 332.979 600.881 337.99C600.881 343.056 601.546 347.026 604.151 352.471C604.222 352.591 604.285 352.717 604.341 352.846L488.692 353.225L460.793 353.326L347.373 353.775L340.647 349.666Z" fill="#FFFEFF"/>
<path d="M331.245 338.3V337.993C331.309 331.557 332.897 324.47 336.58 319.13H340.647V318.959H607.488V323.51H492.885C490.919 328.047 489.88 332.986 489.838 337.993C489.838 343.094 490.535 347.098 493.14 352.473H607.488V356.993H489.553L336.583 357.163C332.886 351.823 331.309 344.736 331.245 338.3Z" fill="#DF4E71"/>
<path opacity="0.15" d="M486.184 338.164C486.216 332.789 486.452 328.2 488.867 322.62C489.375 321.428 489.948 320.27 490.581 319.15L607.502 319.011V323.6H603.942L492.899 323.496C492.899 323.496 492.55 341.813 507.289 345.031C521.55 348.145 569.607 349.276 603.403 350.883C603.625 351.433 603.88 351.979 604.165 352.563H607.502V357.079H490.503C489.833 355.865 489.228 354.61 488.692 353.321C486.439 347.885 486.216 343.4 486.184 338.164Z" fill="black"/>
<path d="M362.699 387.595V365.684L368.383 360.479H626.396C626.239 360.788 626.101 361.108 625.983 361.437C623.982 365.961 622.94 370.908 622.932 375.92C622.932 380.985 623.6 384.955 626.205 390.4C626.267 390.504 626.331 390.64 626.396 390.776L510.746 391.154L482.847 391.256L369.421 391.701L362.699 387.595Z" fill="#FFFEFF"/>
<path d="M353.296 376.229V375.923C353.36 369.486 354.948 362.4 358.632 357.059H362.699V356.889H629.54V361.44H514.939C512.972 365.976 511.932 370.915 511.889 375.923C511.889 381.023 512.589 385.028 515.194 390.403H629.54V394.922H511.605L358.64 395.081C354.948 389.752 353.36 382.666 353.296 376.229Z" fill="#F8DBA6"/>
<path opacity="0.15" d="M508.238 376.093C508.268 370.718 508.49 366.129 510.905 360.549C511.415 359.359 511.988 358.2 512.619 357.079L629.54 356.94V361.541H625.982L514.939 361.437C514.939 361.437 514.591 379.754 529.326 382.972C543.59 386.086 591.647 387.216 625.443 388.824C625.663 389.373 625.918 389.92 626.205 390.504H629.54V395.02H512.557C511.885 393.807 511.28 392.552 510.746 391.261C508.49 385.828 508.268 381.329 508.238 376.093Z" fill="black"/>
<path d="M447.436 320.295C446.987 320.637 446.497 320.911 445.979 321.108C444.798 321.551 443.58 321.871 442.341 322.062C438.653 322.701 433.652 322.929 428.636 322.99C420.475 323.091 412.293 323.638 410.458 322.412C408.623 321.186 412.204 312.488 411.786 304.774C411.276 295.151 407.832 288.209 407.319 278.997C406.807 269.785 405.463 257.789 407.587 256.201C408.752 255.334 411.147 254.441 415.126 253.749C418.407 253.171 421.363 252.784 427.029 252.593C432.81 252.393 435.613 252.954 438.58 253.891C442.851 255.224 444.428 256.54 445.389 257.196C447.444 258.593 446.363 261.354 446.62 264.653C446.657 265.148 446.729 265.639 446.835 266.122C447.64 269.881 446.247 275.065 445.912 277.54C444.273 289.64 443.428 289.106 443.444 302.117C443.452 309.47 448.777 319.182 447.436 320.295Z" fill="#F7F7F7"/>
<path d="M428.121 302.114C437.142 301.648 442.755 300.023 445.021 308.877C447.288 317.73 447.055 326.341 443.452 326.341C439.849 326.341 427.7 325.734 421.285 322.703C414.871 319.673 415.826 302.75 428.121 302.114Z" fill="#66B3E2"/>
<path d="M431.31 374.529C431.066 376.681 430.704 381.373 430.401 382.937C430.098 384.502 428.523 389.009 428.708 392.32C428.893 395.631 429.317 397.846 430.462 398.054C433.786 398.661 436.877 397.727 437.63 395.252C438.384 392.777 436.871 385.933 437.174 383.131C437.478 380.329 437.842 374.986 437.842 374.986L431.31 374.529Z" fill="#D28E56"/>
<path d="M455.054 319.057C455.743 319.228 456.44 319.36 457.141 319.454C457.842 319.511 458.939 318.624 460.326 318.647C461.713 318.67 462.697 320.072 462.694 321.761C462.692 323.45 461.729 325.731 461.764 327.388C461.798 329.044 461.57 335.42 461.249 336.351C460.927 337.282 459.07 338.349 459.062 336.522C459.054 334.694 458.139 329.094 457.799 328.021C457.458 326.948 455.226 327.018 454.413 326.997C453.6 326.977 454.606 318.953 455.054 319.057Z" fill="#D28E56"/>
<path d="M425.317 253.749C420.413 253.987 417.269 253.888 417.269 256.93C417.269 259.972 420.547 264.289 426.219 264.427C431.89 264.566 433.558 259.57 433.354 257.069C433.151 254.568 430.21 253.509 425.317 253.749Z" fill="#D28E56"/>
<path d="M452.12 288.967C452.141 289.042 452.163 289.123 452.179 289.201C452.227 289.426 452.267 289.646 452.297 289.869C452.314 289.977 452.325 290.086 452.329 290.196C452.332 290.245 452.332 290.294 452.329 290.343C452.344 291.025 452.231 291.704 451.996 292.338C451.761 292.971 451.409 293.547 450.961 294.03C450.909 294.096 450.853 294.158 450.794 294.217C448.715 296.453 434.119 303.181 428.947 305.477C427.721 306.017 426.846 306.393 426.532 306.523C424.856 307.183 421.342 301.472 422.943 300.451C423.48 300.107 424.343 299.488 425.4 298.716C428.164 296.652 435.973 292.298 439.291 289.632C441.926 287.521 444.061 285.78 444.624 285.295C446.17 283.973 448.874 284.552 450.58 286.324C451.287 287.054 451.816 287.962 452.12 288.967Z" fill="#D0894E"/>
<path d="M442.784 293.85C442.82 293.922 442.859 293.991 442.902 294.058C443.02 294.249 443.138 294.434 443.27 294.611C443.33 294.698 443.396 294.781 443.465 294.859C443.492 294.897 443.524 294.929 443.559 294.969C443.938 295.431 444.403 295.802 444.923 296.058C445.444 296.314 446.008 296.449 446.58 296.455C446.715 296.459 446.851 296.451 446.985 296.432C449.169 296.187 453.177 293.772 452.474 287.868C452.345 286.801 452.205 285.581 452.042 284.265C451.237 277.832 450.151 269.21 449.853 266.399C449.491 263.005 448.608 256.398 442.17 257.456C436.727 258.344 437.411 263.916 437.534 267.142C437.657 270.369 440.973 286.547 441.571 290.106C441.765 291.422 442.176 292.69 442.784 293.85Z" fill="#D0894E"/>
<path d="M400.696 290.505C400.672 290.58 400.645 290.661 400.626 290.736C400.567 290.959 400.513 291.176 400.473 291.396C400.45 291.502 400.434 291.61 400.425 291.719C400.425 291.766 400.425 291.812 400.409 291.867C400.359 292.547 400.438 293.231 400.641 293.878C400.844 294.524 401.168 295.119 401.592 295.626C401.643 295.695 401.691 295.762 401.747 295.825C403.714 298.176 417.959 305.728 423.01 308.322C424.204 308.932 425.06 309.36 425.373 309.507C427.015 310.262 430.806 304.76 429.258 303.649C428.721 303.276 427.917 302.608 426.889 301.767C424.233 299.546 416.649 294.75 413.476 291.899C410.949 289.638 408.902 287.778 408.363 287.272C406.887 285.861 404.159 286.286 402.367 287.955C401.623 288.643 401.049 289.519 400.696 290.505Z" fill="#D0894E"/>
<path d="M409.675 294.88C409.642 294.949 409.608 295.027 409.57 295.094C409.469 295.293 409.358 295.486 409.237 295.672C409.182 295.763 409.122 295.851 409.058 295.935C409.034 295.973 409.001 296.01 408.969 296.051C408.619 296.538 408.178 296.942 407.674 297.234C407.17 297.527 406.616 297.703 406.045 297.751C405.911 297.763 405.777 297.763 405.643 297.751C403.448 297.664 399.301 295.542 399.639 289.597C399.701 288.524 399.773 287.284 399.848 285.974C400.245 279.497 400.809 270.817 400.935 267.99C401.088 264.578 401.56 257.922 408.049 258.517C413.538 259.015 413.197 264.624 413.269 267.851C413.342 271.078 411.035 287.46 410.654 291.054C410.541 292.382 410.209 293.677 409.675 294.88Z" fill="#D0894E"/>
<path d="M400.8 263.615C397.581 272.694 397.946 285.179 397.946 285.179L412.36 287.27C412.36 287.27 415.547 266.241 414.927 261.412C414.509 258.156 415.56 253.663 413.103 254.276C406.979 255.814 403.105 257.121 400.8 263.615Z" fill="#F7F7F7"/>
<path d="M450.507 263.109C453.727 272.191 453.362 284.676 453.362 284.676L438.951 286.766C438.951 286.766 435.761 265.737 436.383 260.906C436.799 257.653 435.747 253.157 438.205 253.772C444.329 255.308 448.203 256.618 450.507 263.109Z" fill="#F7F7F7"/>
<path d="M439.101 309.837C447.656 310.545 447.532 321.012 446.88 327.154C446.229 333.295 440.174 380.066 440.174 380.066C438.503 381.121 436.557 381.559 434.634 381.312C431.31 380.939 428.096 378.065 428.096 378.065C428.096 378.065 430.21 335.062 431.112 327.194C432.013 319.326 431.723 309.227 439.101 309.837Z" fill="#66B3E2"/>
<path d="M392.337 306.931C393.871 299.306 414.141 301.243 423.158 302.114C432.174 302.984 431.281 310.432 430.669 316.056C430.057 321.68 412.835 323.079 404.875 321.24C396.916 319.401 390.402 316.536 392.337 306.931Z" fill="#66B3E2"/>
<path d="M444.839 286.848L443.229 308.845C443.21 309.11 443.098 309.358 442.916 309.538C442.735 309.718 442.497 309.818 442.25 309.817H412.83C412.694 309.817 412.561 309.786 412.438 309.727C412.314 309.667 412.204 309.581 412.113 309.473C411.964 309.305 411.869 309.088 411.845 308.857L409.938 286.865C409.925 286.718 409.94 286.571 409.983 286.431C410.026 286.292 410.095 286.163 410.187 286.054C410.279 285.946 410.391 285.859 410.515 285.799C410.64 285.739 410.775 285.708 410.911 285.708H443.849C443.986 285.705 444.121 285.733 444.248 285.79C444.374 285.847 444.487 285.932 444.58 286.039C444.674 286.147 444.745 286.274 444.79 286.414C444.834 286.553 444.851 286.701 444.839 286.848Z" fill="#FDFFFF"/>
<path d="M430.836 298.668C431.174 296.42 429.758 294.302 427.673 293.937C425.587 293.573 423.622 295.099 423.284 297.347C422.945 299.594 424.361 301.712 426.447 302.077C428.532 302.442 430.497 300.916 430.836 298.668Z" fill="#F5F7F7"/>
<path opacity="0.05" d="M444.839 286.847L443.229 308.845C443.21 309.11 443.098 309.358 442.916 309.538C442.735 309.718 442.497 309.817 442.25 309.817H412.83C412.694 309.816 412.561 309.786 412.438 309.726C412.314 309.667 412.204 309.581 412.113 309.472C418.401 309.14 436.364 307.926 439.208 304.965C442.427 301.582 442.991 291.82 442.427 285.708H443.876C444.01 285.709 444.143 285.739 444.266 285.798C444.389 285.857 444.499 285.943 444.59 286.05C444.68 286.157 444.749 286.283 444.792 286.42C444.835 286.558 444.851 286.703 444.839 286.847Z" fill="black"/>
<path d="M392.028 307.879C389.995 316.866 399.271 319.989 404.878 321.241C410.485 322.493 453.547 332.517 453.547 332.517C453.547 332.517 455.749 329.047 456.455 325.523C457.16 321.998 455.62 317.814 455.62 317.814C455.62 317.814 417.041 306.616 409.822 305.092C402.603 303.568 393.783 300.133 392.028 307.879Z" fill="#66B3E2"/>
<path d="M433.36 238.893C433.481 234.099 435.238 234.941 435.238 233.18C435.238 231.419 433.473 230.933 433.451 229.731C433.43 228.528 434.83 227.273 434.771 225.324C434.712 223.375 431.329 223.656 430.337 222.037C429.344 220.417 430.98 217.653 428.587 217.026C426.195 216.398 424.027 219.478 421.414 219.478C418.801 219.478 416.105 217.529 414.589 217.529C413.074 217.529 413.889 219.842 412.607 221.236C411.325 222.629 410.278 221.713 409.755 224.037C409.232 226.362 411.681 228.375 411.327 229.936C410.973 231.497 410.329 231.382 410.622 232.891C410.914 234.4 412.363 236.47 414.09 239.446C415.818 242.421 433.261 242.791 433.36 238.893Z" fill="#121445"/>
<path d="M430.851 255.426C430.803 258.402 427.726 258.153 425.867 258.205C424.008 258.257 420.07 258.266 419.965 255.782C419.882 254.114 419.861 252.425 419.834 249.736C419.834 249.369 419.834 248.984 419.834 248.58C419.834 247.98 419.828 247.331 419.818 246.631C419.818 246.139 419.818 245.642 419.799 245.121C419.795 244.573 419.912 244.031 420.14 243.54C421.932 239.654 430.406 239.807 430.505 243.569C430.532 244.535 430.564 245.529 430.605 246.532C430.632 247.2 430.658 247.883 430.693 248.556C430.693 248.846 430.715 249.115 430.725 249.392C430.779 250.985 430.814 251.104 430.835 252.538C430.825 253.293 430.862 254.767 430.851 255.426Z" fill="#D28E56"/>
<path opacity="0.15" d="M430.672 248.565C428.257 250.662 423.394 251.26 419.823 249.745C419.823 249.378 419.823 248.993 419.823 248.588C419.823 247.989 419.818 247.339 419.807 246.64C419.807 246.148 419.807 245.651 419.788 245.13C419.784 244.581 419.901 244.039 420.129 243.549C421.921 239.663 430.395 239.816 430.495 243.578C430.522 244.543 430.554 245.538 430.594 246.541C430.61 247.209 430.637 247.892 430.672 248.565Z" fill="black"/>
<path d="M431.941 245.656C430.312 250.187 419.783 251.15 416.489 245.899C415.016 243.554 413.913 239.48 413.358 235.637C412.926 232.671 412.821 229.834 413.141 228.039C413.559 225.61 416.258 224.569 421.725 223.124C426.57 221.851 431.136 225.625 432.678 232.518C432.879 233.443 433.023 234.382 433.11 235.328C433.446 238.856 433.73 240.68 431.941 245.656Z" fill="#D28E56"/>
<path d="M413.366 236.453C413.869 235.916 414.267 235.277 414.539 234.573C414.811 233.868 414.95 233.113 414.949 232.35C414.989 230.529 415.343 229.488 416.679 229.326C419.397 228.993 420.971 231.084 423.971 231.425C426.194 231.679 428.987 230.598 430.677 231.228C431.716 231.65 432.567 232.484 433.054 233.559L431.643 225.373C431.643 225.373 428.499 220.955 425.323 220.883C422.146 220.811 418.24 221.727 415.638 223.057C413.036 224.387 412.255 226.165 412.255 228.082C412.255 229.999 413.366 236.453 413.366 236.453Z" fill="#121445"/>
<path d="M431.941 245.656C430.312 250.187 419.783 251.15 416.489 245.899C415.016 243.554 413.913 239.48 413.358 235.638L413.72 232.746C413.967 237.569 416.381 241.999 417.661 243.222C418.941 244.445 421.859 243.728 424.368 243.222C426.876 242.716 429.465 242.756 430.669 241.435C431.874 240.114 432.233 233.669 431.452 230.401L432.684 232.529C432.884 233.455 433.028 234.394 433.116 235.34C433.446 238.856 433.73 240.68 431.941 245.656Z" fill="#121445"/>
<path d="M422.986 245.356C422.986 245.356 423.587 246.862 425.06 246.778C426.533 246.695 427.294 245.94 427.458 245.061C427.622 244.182 423.15 244.39 422.986 245.356Z" fill="#D28E56"/>
<path d="M428.657 246.243C427.728 246.924 426.669 247.372 425.558 247.553C424.088 247.811 422.484 247.634 421.239 246.628C418.956 244.783 417.516 239.689 419.48 239.327C421.443 238.966 421.685 237.245 424.217 236.904L424.443 236.881C426.889 236.676 427.954 238.674 429.679 238.393C431.828 238.041 430.304 244.96 428.657 246.243Z" fill="#EFEFEF"/>
<path d="M424.268 237.517C426.578 237.205 427.53 239.09 429.097 238.833C431.004 238.523 429.652 244.653 428.193 245.789C426.734 246.926 423.632 247.764 421.623 246.13C419.614 244.497 418.323 239.98 420.064 239.662C421.805 239.344 422.023 237.821 424.268 237.517Z" fill="white"/>
<path d="M422.302 240.102L422.074 239.726C422.323 239.599 422.558 239.44 422.771 239.252C423.186 238.865 423.696 238.615 424.239 238.535C425.095 238.419 425.803 238.72 426.428 238.986C426.578 239.049 426.718 239.11 426.854 239.162L426.629 239.555C426.482 239.5 426.334 239.44 426.178 239.373C425.596 239.125 424.993 238.87 424.301 238.963C423.861 239.033 423.45 239.24 423.118 239.558C422.866 239.773 422.593 239.956 422.302 240.102Z" fill="#CFE2DA"/>
<path d="M423.469 243.525C423.201 242.727 422.613 242.221 422.128 242.369H422.109H422.093L422.015 242.403L421.889 242.505C421.575 242.817 421.492 243.496 421.717 244.176C421.926 244.806 422.34 245.254 422.737 245.332L423.005 245.347L423.058 245.321H423.091C423.56 245.15 423.737 244.341 423.469 243.525Z" fill="#C2D3CC"/>
<path d="M423.383 243.572C423.651 244.387 423.482 245.197 422.999 245.382C422.516 245.567 421.91 245.058 421.639 244.242C421.368 243.427 421.54 242.618 422.023 242.432C422.506 242.247 423.112 242.748 423.383 243.572Z" fill="#A5B5AE"/>
<path d="M423.238 243.612C422.97 242.814 422.382 242.311 421.897 242.455H421.878H421.862L421.784 242.49L421.661 242.594C421.344 242.906 421.261 243.583 421.486 244.263C421.696 244.893 422.109 245.341 422.506 245.419H422.774L422.825 245.393H422.857C423.337 245.237 423.509 244.439 423.238 243.612Z" fill="#C2D3CC"/>
<path d="M423.152 243.65C423.42 244.465 423.251 245.275 422.771 245.46C422.291 245.645 421.679 245.136 421.408 244.32C421.138 243.505 421.309 242.698 421.792 242.51C422.275 242.322 422.881 242.837 423.152 243.65Z" fill="#CFE2DA"/>
<path d="M421.878 242.473L422.117 242.386H422.388L422.144 242.473H421.878Z" fill="#C2D3CC"/>
<path d="M423.324 244.526L423.56 244.419L423.496 243.783L423.343 243.323L423.117 243.416L423.289 243.925L423.324 244.526Z" fill="#C2D3CC"/>
<path opacity="0.02" d="M428.657 246.243C427.728 246.924 426.669 247.372 425.559 247.553C425.527 247.258 425.537 246.96 425.588 246.668C425.744 245.63 426.125 244.644 426.393 243.638C426.661 242.632 426.844 241.542 426.586 240.53C426.444 240.022 426.242 239.536 425.985 239.084C425.584 238.262 425.062 237.515 424.44 236.872C426.887 236.667 427.952 238.665 429.676 238.384C431.828 238.04 430.304 244.96 428.657 246.243Z" fill="black"/>
<path d="M418.731 240.703C417.213 240.672 414.89 238.925 413.597 237.092L413.452 236.225C414.286 237.795 417.025 240.29 418.855 240.325L418.731 240.703Z" fill="white"/>
<path d="M420.094 244.98C418.149 244.98 416.226 243.892 415.029 242.724L414.833 242.146C415.791 243.08 417.835 244.609 419.81 244.609L420.094 244.98Z" fill="white"/>
<path d="M430.436 239.472L430.293 239.122C430.9 238.833 431.613 238.006 432.094 236.722C432.518 235.549 432.866 234.346 433.137 233.122V234.128C432.877 235.447 432.115 238.674 430.436 239.472Z" fill="white"/>
<path d="M429.516 244.503L429.744 243.947C431.112 243.389 432.587 241.001 433.357 238.691V239.379C432.606 241.961 430.999 243.895 429.516 244.503Z" fill="white"/>
<path d="M475.44 218.278C471.829 218.278 471.475 230.02 475.44 230.02H530.166C532.964 230.02 533.05 218.263 530.166 218.263L475.44 218.278Z" fill="#2D3551"/>
<path d="M475.44 230.02V248.429L492.571 272.208H512.745L530.225 248.429V230.02H475.44Z" fill="#3B446D"/>
<path d="M475.44 231.581C473.425 231.581 473.141 234.961 475.44 235.34C478.391 235.808 527.395 235.004 530.166 235.34C531.904 235.548 531.947 231.581 530.166 231.581C527.293 231.578 478.726 231.59 475.44 231.581Z" fill="#2D3551"/>
<path d="M475.44 238.133C473.425 238.133 473.141 241.513 475.44 241.877C478.391 242.349 527.395 241.545 530.166 241.877C531.904 242.089 531.947 238.119 530.166 238.119C527.293 238.13 478.726 238.139 475.44 238.133Z" fill="#2D3551"/>
<path d="M475.486 244.685C473.471 244.685 473.187 248.065 475.486 248.429C478.437 248.901 527.443 248.094 530.212 248.429C531.95 248.64 531.993 244.67 530.212 244.67C527.339 244.682 478.775 244.691 475.486 244.685Z" fill="#2D3551"/>
<path d="M551.171 145.932C551.171 174.878 530.783 193.66 530.783 218.613L511.964 218.561H509.818L497.478 218.526H495.332L474.297 218.471C474.297 196.514 454.537 168.56 455.773 141.612C457.01 114.664 475.539 96.6885 503.941 96.6885C532.342 96.6885 551.171 116.986 551.171 145.932Z" fill="#EFC083"/>
<path d="M524.5 157.697C522.867 164.304 520.39 171.344 517.869 176.52C512.6 187.374 511.878 203.072 511.967 218.567H509.821C509.724 202.78 510.473 186.761 515.964 175.45C521.555 163.945 525.278 147.429 523.682 144.486C523.602 144.336 523.567 144.336 523.543 144.336H523.516C522.174 144.336 521.128 148.256 520.364 151.128C519.333 154.988 518.365 158.645 515.937 158.81C513.255 159.01 512.812 154.918 512.342 150.587C512.01 147.499 511.503 142.829 510.089 142.78H510.068C508.635 142.78 507.865 147.21 507.304 150.451C506.54 154.837 505.88 158.628 503.398 158.807C500.751 158.998 500.013 155.048 499.144 150.474C498.564 147.432 497.69 142.826 496.367 142.786H496.351C495.176 142.786 494.846 147.325 494.645 150.043C494.323 154.424 494.044 158.211 491.673 158.784C489.108 159.403 487.249 155.216 485.282 150.783C484.609 149.274 483.651 147.126 483.029 146.261C481.782 149.187 481.841 157.387 489.366 171.61C496.92 185.905 497.454 198.876 497.475 218.529H495.329C495.313 198.703 494.811 186.588 487.498 172.761C479.689 157.986 479.212 148.58 481.371 144.697C481.908 143.746 482.605 143.633 482.981 143.653C484.456 143.726 485.452 145.807 487.219 149.786C488.024 151.613 488.875 153.504 489.712 154.872C490.723 156.532 491.203 156.526 491.209 156.532C492.04 156.332 492.362 151.963 492.515 149.864C492.856 145.238 493.202 140.479 496.338 140.479H496.44C499.455 140.58 500.37 145.377 501.252 150.02C501.59 151.807 502.486 156.546 503.259 156.514C504.088 156.454 504.842 152.116 505.201 150.032C506.03 145.287 506.878 140.392 510.156 140.49C513.434 140.588 513.96 145.541 514.478 150.321C514.684 152.229 515.114 156.193 515.792 156.511C516.726 156.442 517.716 152.715 518.309 150.491C519.417 146.328 520.559 142.028 523.51 142.028H523.615C524.014 142.043 524.401 142.171 524.74 142.398C525.078 142.625 525.356 142.945 525.544 143.324C526.966 145.937 525.769 152.579 524.5 157.697Z" fill="white"/>
<path d="M428.601 70.3191C427.734 67.8556 426.975 65.2533 427.222 62.6337C427.469 60.0141 428.957 57.3656 431.302 56.6283C433.405 55.9632 435.718 56.9723 437.314 58.5915C438.91 60.2107 439.93 62.3504 440.919 64.4698C443.259 69.443 445.597 74.4181 447.935 79.3952C450.95 85.8141 454 92.2157 456.986 98.6548C459.593 104.284 461.925 106.713 458.327 107.514C455.771 108.092 451.063 103.238 449.332 101.731C445.393 98.2643 441.846 94.3096 438.765 89.9488C434.506 83.9753 431.082 77.3619 428.601 70.3191Z" fill="#F4CA98"/>
<path d="M483.692 37.8512C483.19 35.0089 482.689 32.0684 483.306 29.2463C483.923 26.4243 485.988 23.7527 488.655 23.5358C491.069 23.3334 493.312 25.1637 494.479 27.445C495.646 29.7263 495.944 32.3922 496.169 34.9858C497.301 48.0289 497.583 58.1662 497.907 71.2613C498.138 80.5514 498.905 88.202 496.429 91.3103C494.779 93.3777 492.842 89.4772 492.209 87.1264C489.583 77.3853 489.717 71.9726 488.038 62.4628L483.692 37.8512Z" fill="#F4CA98"/>
<path d="M545.661 46.589C547.539 43.209 549.905 39.7682 552.118 40.1354C552.326 40.16 552.525 40.2397 552.697 40.3674C552.87 40.495 553.01 40.6666 553.106 40.8669C553.446 41.5609 553.433 42.7059 553.374 43.7786C553.163 47.1731 552.613 50.5331 551.732 53.8002C550.629 57.8915 549.049 61.6532 547.496 65.3658C545.208 70.819 542.911 76.2808 540.435 81.4882C538.778 84.9724 534.652 94.887 532.229 95.8036C526.652 97.9172 536.079 68.5521 537.377 64.9783C539.664 58.6133 542.435 52.4626 545.661 46.589Z" fill="#F4CA98"/>
<path d="M732.259 585.243H278.493C233.038 585.243 210.085 595.542 274.351 601.643C338.617 607.744 437.631 598.596 437.631 598.596C437.631 598.596 457.193 619.148 599.489 618.723C741.785 618.298 853.517 615.542 853.482 601.802C853.45 588.999 783.21 585.243 732.259 585.243Z" fill="#35C99E"/>
<path opacity="0.15" d="M632.633 585.335C632.633 591.335 567.535 596.201 487.233 596.201C406.93 596.201 341.833 591.335 341.833 585.335H632.633Z" fill="black"/>
<path opacity="0.15" d="M599.177 612.26C624.043 612.26 644.2 610.754 644.2 608.895C644.2 607.036 624.043 605.529 599.177 605.529C574.312 605.529 554.154 607.036 554.154 608.895C554.154 610.754 574.312 612.26 599.177 612.26Z" fill="black"/>
<path d="M581.582 606.923L575.433 607.978L529.962 300.503H536.266L539.094 319.616L540.084 326.327L545.599 363.629L546.595 370.339L552.11 407.639L553.1 414.347L558.616 451.649L559.611 458.357L565.126 495.659L566.119 502.37L571.635 539.672L572.627 546.382L578.143 583.682L579.135 590.39L581.582 606.923Z" fill="#22283F"/>
<path d="M625.298 606.923L619.15 607.978L616.548 590.39L615.558 583.682L610.042 546.382L609.05 539.672L603.534 502.37L602.539 495.659L597.023 458.357L596.033 451.649L590.515 414.347L589.522 407.639L584.007 370.339L583.017 363.629L577.501 326.327L576.506 319.616L573.679 300.503H579.983L615.351 539.672L615.533 540.9L621.862 583.682L622.522 588.16L625.298 606.923Z" fill="#22283F"/>
<path d="M580.573 326.327V319.616H534.11V326.327H580.573Z" fill="#22283F"/>
<path d="M587.564 370.339V363.628H541.101V370.339H587.564Z" fill="#22283F"/>
<path d="M594.555 414.35V407.639H548.092V414.35H594.555Z" fill="#22283F"/>
<path d="M601.549 458.359V451.648H555.085V458.359H601.549Z" fill="#22283F"/>
<path d="M608.54 502.37V495.659H562.076V502.37H608.54Z" fill="#22283F"/>
<path d="M615.531 546.379V539.668H569.067V546.379H615.531Z" fill="#22283F"/>
<path d="M622.525 590.393V583.682H576.061V590.393H622.525Z" fill="#22283F"/>
</g>
<defs>
<clipPath id="clip0_393_2841">
<rect width="687.929" height="595.21" fill="white" transform="translate(167.911 23.5215)"/>
</clipPath>
</defs>
</svg>
