<svg width="25" height="25" viewBox="0 0 25 25" fill="none" xmlns="http://www.w3.org/2000/svg">
<path d="M23.6111 0H16.2037C15.4382 0.000416666 14.6875 0.248403 14.0342 0.71674C13.3808 1.18508 12.85 1.85566 12.5 2.65489C12.15 1.85566 11.6192 1.18508 10.9658 0.71674C10.3125 0.248403 9.56183 0.000416666 8.7963 0H1.38889C1.02053 0 0.667263 0.171777 0.406796 0.477543C0.146329 0.783309 0 1.19802 0 1.63043V19.0217C0 19.4542 0.146329 19.8689 0.406796 20.1746C0.667263 20.4804 1.02053 20.6522 1.38889 20.6522H8.7963C9.65579 20.6522 10.4801 21.053 11.0878 21.7664C11.6956 22.4799 12.037 23.4475 12.037 24.4565C12.037 24.6007 12.0858 24.7389 12.1726 24.8408C12.2595 24.9427 12.3772 25 12.5 25C12.6228 25 12.7405 24.9427 12.8274 24.8408C12.9142 24.7389 12.963 24.6007 12.963 24.4565C12.963 23.4475 13.3044 22.4799 13.9122 21.7664C14.5199 21.053 15.3442 20.6522 16.2037 20.6522H23.6111C23.9795 20.6522 24.3327 20.4804 24.5932 20.1746C24.8537 19.8689 25 19.4542 25 19.0217V1.63043C25 1.19802 24.8537 0.783309 24.5932 0.477543C24.3327 0.171777 23.9795 0 23.6111 0ZM8.7963 19.5652H1.38889C1.2661 19.5652 1.14835 19.508 1.06152 19.406C0.974702 19.3041 0.925926 19.1659 0.925926 19.0217V1.63043C0.925926 1.4863 0.974702 1.34806 1.06152 1.24614C1.14835 1.14422 1.2661 1.08696 1.38889 1.08696H8.7963C9.65579 1.08696 10.4801 1.48777 11.0878 2.20122C11.6956 2.91468 12.037 3.88233 12.037 4.8913V21.3859C11.6471 20.8174 11.1536 20.3587 10.5927 20.0436C10.0319 19.7286 9.41804 19.5651 8.7963 19.5652ZM24.0741 19.0217C24.0741 19.1659 24.0253 19.3041 23.9385 19.406C23.8517 19.508 23.7339 19.5652 23.6111 19.5652H16.2037C15.5819 19.5652 14.9679 19.7289 14.4071 20.0443C13.8463 20.3596 13.3528 20.8185 12.963 21.3872V4.8913C12.963 3.88233 13.3044 2.91468 13.9122 2.20122C14.5199 1.48777 15.3442 1.08696 16.2037 1.08696H23.6111C23.7339 1.08696 23.8517 1.14422 23.9385 1.24614C24.0253 1.34806 24.0741 1.4863 24.0741 1.63043V19.0217ZM21.2963 5.97826C21.2963 6.1224 21.2475 6.26064 21.1607 6.36256C21.0739 6.46448 20.9561 6.52174 20.8333 6.52174H16.2037C16.0809 6.52174 15.9632 6.46448 15.8763 6.36256C15.7895 6.26064 15.7407 6.1224 15.7407 5.97826C15.7407 5.83412 15.7895 5.69589 15.8763 5.59396C15.9632 5.49204 16.0809 5.43478 16.2037 5.43478H20.8333C20.9561 5.43478 21.0739 5.49204 21.1607 5.59396C21.2475 5.69589 21.2963 5.83412 21.2963 5.97826ZM21.2963 10.3261C21.2963 10.4702 21.2475 10.6085 21.1607 10.7104C21.0739 10.8123 20.9561 10.8696 20.8333 10.8696H16.2037C16.0809 10.8696 15.9632 10.8123 15.8763 10.7104C15.7895 10.6085 15.7407 10.4702 15.7407 10.3261C15.7407 10.1819 15.7895 10.0437 15.8763 9.94179C15.9632 9.83987 16.0809 9.78261 16.2037 9.78261H20.8333C20.9561 9.78261 21.0739 9.83987 21.1607 9.94179C21.2475 10.0437 21.2963 10.1819 21.2963 10.3261ZM21.2963 14.6739C21.2963 14.8181 21.2475 14.9563 21.1607 15.0582C21.0739 15.1601 20.9561 15.2174 20.8333 15.2174H16.2037C16.0809 15.2174 15.9632 15.1601 15.8763 15.0582C15.7895 14.9563 15.7407 14.8181 15.7407 14.6739C15.7407 14.5298 15.7895 14.3915 15.8763 14.2896C15.9632 14.1877 16.0809 14.1304 16.2037 14.1304H20.8333C20.9561 14.1304 21.0739 14.1877 21.1607 14.2896C21.2475 14.3915 21.2963 14.5298 21.2963 14.6739Z" fill="black"/>
</svg>
