<svg width="25" height="25" viewBox="0 0 25 25" fill="none" xmlns="http://www.w3.org/2000/svg">
<g clip-path="url(#clip0_512_14)">
<path d="M2.21423 11.6786L22.7499 2.33931M22.7499 2.33931L18.9107 0.892883M22.7499 2.33931L21.3214 6.1786M23.6607 24.125H19.1964V11.625C19.1964 11.3882 19.2904 11.1611 19.4579 10.9937C19.6253 10.8262 19.8524 10.7322 20.0892 10.7322H22.7678C23.0046 10.7322 23.2317 10.8262 23.3992 10.9937C23.5666 11.1611 23.6607 11.3882 23.6607 11.625V24.125ZM14.7321 24.125H10.2678V14.3036C10.2678 14.0668 10.3619 13.8397 10.5293 13.6723C10.6968 13.5048 10.9239 13.4107 11.1607 13.4107H13.8392C14.076 13.4107 14.3031 13.5048 14.4706 13.6723C14.638 13.8397 14.7321 14.0668 14.7321 14.3036V24.125ZM5.80352 24.125H1.33923V16.9822C1.33923 16.7454 1.4333 16.5183 1.60075 16.3508C1.76819 16.1834 1.99529 16.0893 2.23209 16.0893H4.91066C5.14746 16.0893 5.37456 16.1834 5.54201 16.3508C5.70945 16.5183 5.80352 16.7454 5.80352 16.9822V24.125Z" stroke="black" stroke-linecap="round" stroke-linejoin="round"/>
</g>
<defs>
<clipPath id="clip0_512_14">
<rect width="25" height="25" fill="white"/>
</clipPath>
</defs>
</svg>
