<svg width="25" height="25" viewBox="0 0 25 25" fill="none" xmlns="http://www.w3.org/2000/svg">
<path d="M12.5 13.9584L7.39585 19.0625C7.20488 19.2535 6.96183 19.349 6.66669 19.349C6.37155 19.349 6.12849 19.2535 5.93752 19.0625C5.74655 18.8715 5.65106 18.6285 5.65106 18.3334C5.65106 18.0382 5.74655 17.7952 5.93752 17.6042L11.0417 12.5L5.93752 7.39585C5.74655 7.20488 5.65106 6.96183 5.65106 6.66669C5.65106 6.37155 5.74655 6.12849 5.93752 5.93752C6.12849 5.74655 6.37155 5.65106 6.66669 5.65106C6.96183 5.65106 7.20488 5.74655 7.39585 5.93752L12.5 11.0417L17.6042 5.93752C17.7952 5.74655 18.0382 5.65106 18.3334 5.65106C18.6285 5.65106 18.8715 5.74655 19.0625 5.93752C19.2535 6.12849 19.349 6.37155 19.349 6.66669C19.349 6.96183 19.2535 7.20488 19.0625 7.39585L13.9584 12.5L19.0625 17.6042C19.2535 17.7952 19.349 18.0382 19.349 18.3334C19.349 18.6285 19.2535 18.8715 19.0625 19.0625C18.8715 19.2535 18.6285 19.349 18.3334 19.349C18.0382 19.349 17.7952 19.2535 17.6042 19.0625L12.5 13.9584Z" fill="#F8F8F8"/>
</svg>
