<svg width="25" height="25" viewBox="0 0 25 25" fill="none" xmlns="http://www.w3.org/2000/svg">
<g clip-path="url(#clip0_518_15)">
<path d="M5.2234e-08 12.5C0.00022268 10.0633 0.712639 7.67979 2.04963 5.64262C3.38661 3.60545 5.28987 2.00347 7.5253 1.03372C9.76073 0.0639642 12.2309 -0.231278 14.6319 0.184304C17.0329 0.599887 19.2601 1.70817 21.0395 3.37285C22.819 5.03752 24.0731 7.186 24.6476 9.55402C25.2221 11.922 25.092 14.4063 24.2732 16.7014C23.4544 18.9964 21.9827 21.0021 20.0391 22.4717C18.0954 23.9414 15.7646 24.8109 13.3333 24.9734V15H16.6667V13.3334H13.3333V10.8334C13.3333 10.1703 13.5967 9.53443 14.0656 9.06559C14.5344 8.59675 15.1703 8.33336 15.8333 8.33336H16.6667V6.66669H15.8333C14.7283 6.66669 13.6685 7.10568 12.8871 7.88708C12.1057 8.66848 11.6667 9.72829 11.6667 10.8334V13.3334H8.33333V15H11.6667V24.9734C8.50257 24.7619 5.5371 23.3559 3.3709 21.0399C1.2047 18.7239 -0.000289674 15.6712 5.2234e-08 12.5Z" fill="black"/>
</g>
<defs>
<clipPath id="clip0_518_15">
<rect width="25" height="25" fill="white"/>
</clipPath>
</defs>
</svg>
