<svg width="25" height="25" viewBox="0 0 25 25" fill="none" xmlns="http://www.w3.org/2000/svg">
<path d="M9.375 4.16669V5.60419C8.51042 5.26044 7.58333 5.08335 6.65625 5.08335C4.79167 5.08335 2.92708 5.79169 1.5 7.21877L4.96875 10.6875H6.125V11.8438C7.02083 12.7396 8.1875 13.2084 9.36458 13.2604V15.625H6.25V18.75C6.25 19.8959 7.1875 20.8334 8.33333 20.8334H18.75C20.4792 20.8334 21.875 19.4375 21.875 17.7084V4.16669H9.375ZM8.21875 10.8438V8.60419H5.84375L4.76042 7.52085C5.36527 7.28743 6.00792 7.16738 6.65625 7.16669C8.05208 7.16669 9.35417 7.70835 10.3438 8.68752L11.8125 10.1563L11.6042 10.3646C11.3425 10.6288 11.0309 10.8385 10.6876 10.9816C10.3443 11.1246 9.97608 11.1982 9.60417 11.1979C9.11458 11.1979 8.63542 11.0729 8.21875 10.8438ZM19.7917 17.7084C19.7917 18.2813 19.3229 18.75 18.75 18.75C18.1771 18.75 17.7083 18.2813 17.7083 17.7084V15.625H11.4583V12.9271C12.0521 12.6875 12.6042 12.3334 13.0833 11.8542L13.2917 11.6459L16.2396 14.5834H17.7083V13.1146L11.4583 6.89585V6.25002H19.7917V17.7084Z" fill="black"/>
</svg>
