<svg width="25" height="25" viewBox="0 0 25 25" fill="none" xmlns="http://www.w3.org/2000/svg">
<path d="M13.5708 2.08435C14.3309 2.08143 15.0911 2.08907 15.851 2.10727L16.0531 2.11456C16.2864 2.12289 16.5166 2.13331 16.7948 2.14581C17.9031 2.19789 18.6593 2.37289 19.3229 2.63018C20.0104 2.89477 20.5896 3.2531 21.1687 3.83227C21.6983 4.35269 22.1081 4.98221 22.3698 5.67706C22.6271 6.3406 22.8021 7.09789 22.8541 8.20622C22.8666 8.48331 22.8771 8.71456 22.8854 8.94789L22.8916 9.14998C22.9101 9.90955 22.9181 10.6693 22.9156 11.4291L22.9166 12.2062V13.5708C22.9192 14.331 22.9112 15.0911 22.8927 15.851L22.8864 16.0531C22.8781 16.2864 22.8677 16.5166 22.8552 16.7948C22.8031 17.9031 22.626 18.6593 22.3698 19.3229C22.109 20.0185 21.699 20.6485 21.1687 21.1687C20.6478 21.6982 20.018 22.1081 19.3229 22.3698C18.6593 22.6271 17.9031 22.8021 16.7948 22.8541C16.5166 22.8666 16.2864 22.8771 16.0531 22.8854L15.851 22.8916C15.0911 22.9102 14.3309 22.9181 13.5708 22.9156L12.7937 22.9166H11.4302C10.67 22.9192 9.90989 22.9112 9.14997 22.8927L8.94789 22.8864C8.70061 22.8775 8.45338 22.8671 8.20622 22.8552C7.09789 22.8031 6.34164 22.626 5.67705 22.3698C4.98193 22.1087 4.3523 21.6987 3.83226 21.1687C3.3021 20.6482 2.89187 20.0183 2.63018 19.3229C2.37289 18.6593 2.19789 17.9031 2.1458 16.7948C2.1342 16.5476 2.12379 16.3004 2.11455 16.0531L2.10935 15.851C2.09014 15.0911 2.08146 14.331 2.0833 13.5708V11.4291C2.0804 10.6694 2.08804 9.90956 2.10622 9.14998L2.11351 8.94789C2.12185 8.71456 2.13226 8.48331 2.14476 8.20622C2.19685 7.09685 2.37185 6.34164 2.62914 5.67706C2.89098 4.98187 3.30202 4.35252 3.8333 3.83331C4.35299 3.30284 4.98222 2.89224 5.67705 2.63018C6.34164 2.37289 7.09684 2.19789 8.20622 2.14581L8.94789 2.11456L9.14997 2.10935C9.90954 2.09016 10.6693 2.08147 11.4291 2.08331L13.5708 2.08435ZM12.5 7.29268C11.8099 7.28292 11.1247 7.41042 10.4843 7.66775C9.84392 7.92509 9.26106 8.30714 8.7696 8.7917C8.27814 9.27626 7.88789 9.85366 7.62152 10.4904C7.35515 11.127 7.21798 11.8103 7.21798 12.5005C7.21798 13.1907 7.35515 13.8739 7.62152 14.5106C7.88789 15.1473 8.27814 15.7247 8.7696 16.2093C9.26106 16.6939 9.84392 17.0759 10.4843 17.3332C11.1247 17.5906 11.8099 17.7181 12.5 17.7083C13.8813 17.7083 15.2061 17.1596 16.1828 16.1828C17.1596 15.2061 17.7083 13.8813 17.7083 12.5C17.7083 11.1186 17.1596 9.79388 16.1828 8.81713C15.2061 7.84038 13.8813 7.29268 12.5 7.29268ZM12.5 9.37602C12.9151 9.36837 13.3276 9.44351 13.7133 9.59707C14.099 9.75062 14.4503 9.9795 14.7466 10.2703C15.0429 10.5612 15.2783 10.9081 15.439 11.291C15.5997 11.6738 15.6825 12.0848 15.6825 12.5C15.6826 12.9151 15.5999 13.3262 15.4394 13.7091C15.2788 14.0919 15.0436 14.439 14.7474 14.7299C14.4512 15.0208 14.1 15.2498 13.7143 15.4035C13.3286 15.5572 12.9161 15.6325 12.501 15.625C11.6722 15.625 10.8774 15.2957 10.2913 14.7097C9.70525 14.1236 9.37601 13.3288 9.37601 12.5C9.37601 11.6712 9.70525 10.8763 10.2913 10.2903C10.8774 9.70421 11.6722 9.37498 12.501 9.37498L12.5 9.37602ZM17.9687 5.73018C17.6327 5.74363 17.3149 5.88659 17.0819 6.12911C16.8488 6.37163 16.7187 6.69491 16.7187 7.03123C16.7187 7.36754 16.8488 7.69082 17.0819 7.93334C17.3149 8.17586 17.6327 8.31882 17.9687 8.33227C18.3141 8.33227 18.6452 8.19508 18.8894 7.9509C19.1336 7.70671 19.2708 7.37552 19.2708 7.03018C19.2708 6.68485 19.1336 6.35366 18.8894 6.10947C18.6452 5.86528 18.3141 5.7281 17.9687 5.7281V5.73018Z" fill="black"/>
</svg>
