<svg width="25" height="25" viewBox="0 0 25 25" fill="none" xmlns="http://www.w3.org/2000/svg">
<path d="M13.6717 1.17188V3.125H15.2108C15.6858 3.125 16.153 3.25 16.5655 3.48594L18.5811 4.63594C18.6405 4.67031 18.7061 4.6875 18.7749 4.6875H22.2655C22.5763 4.6875 22.8743 4.81096 23.0941 5.03073C23.3139 5.2505 23.4374 5.54857 23.4374 5.85938C23.4374 6.17018 23.3139 6.46825 23.0941 6.68802C22.8743 6.90779 22.5763 7.03125 22.2655 7.03125H21.5983L24.8967 14.3625C24.9942 14.5794 25.0234 14.8208 24.9804 15.0547C24.9374 15.2885 24.8243 15.5038 24.6561 15.6719L23.828 14.8438L24.6545 15.6734L24.653 15.6766L24.6499 15.6797L24.6405 15.6891L24.6311 15.6969L24.6155 15.7125L24.5452 15.775C24.217 16.05 23.8561 16.2859 23.4733 16.4781C22.7436 16.8437 21.6874 17.1875 20.3124 17.1875C19.2178 17.2004 18.1354 16.9575 17.1514 16.4781C16.7681 16.286 16.4084 16.0501 16.0795 15.775L16.0092 15.7125L15.9842 15.6891L15.9749 15.6797L15.9686 15.6734V15.6719C15.8004 15.5038 15.6873 15.2885 15.6443 15.0547C15.6013 14.8208 15.6305 14.5794 15.728 14.3625L19.028 7.03125H18.7749C18.2983 7.03125 17.8311 6.90781 17.4186 6.67031L15.403 5.52031C15.3441 5.48622 15.2772 5.46842 15.2092 5.46875H13.6717V20.3125H17.578C17.8888 20.3125 18.1868 20.436 18.4066 20.6557C18.6264 20.8755 18.7499 21.1736 18.7499 21.4844C18.7499 21.7952 18.6264 22.0932 18.4066 22.313C18.1868 22.5328 17.8888 22.6562 17.578 22.6562H7.42173C7.11093 22.6562 6.81286 22.5328 6.59309 22.313C6.37332 22.0932 6.24985 21.7952 6.24985 21.4844C6.24985 21.1736 6.37332 20.8755 6.59309 20.6557C6.81286 20.436 7.11093 20.3125 7.42173 20.3125H11.328V5.46875H9.79048C9.72246 5.46842 9.65558 5.48622 9.59673 5.52031L7.58267 6.67187C7.1686 6.90625 6.70142 7.03125 6.22485 7.03125H5.97173L9.27173 14.3625C9.3692 14.5794 9.39839 14.8208 9.35541 15.0547C9.31243 15.2885 9.19932 15.5038 9.0311 15.6719L8.20298 14.8438L9.02954 15.6734L9.02798 15.6766L9.02485 15.6797L9.01548 15.6891L8.99048 15.7125L8.92017 15.775C8.59204 16.05 8.2311 16.2859 7.84829 16.4781C7.1186 16.8437 6.06235 17.1875 4.68735 17.1875C3.59284 17.2004 2.51045 16.9575 1.52642 16.4781C1.14311 16.286 0.783408 16.0501 0.454542 15.775L0.384229 15.7125L0.359229 15.6891L0.349854 15.6797L0.343604 15.6734V15.6719C0.175388 15.5038 0.0622801 15.2885 0.0193014 15.0547C-0.0236773 14.8208 0.00550726 14.5794 0.102979 14.3625L3.40298 7.03125H2.73423C2.42343 7.03125 2.12536 6.90779 1.90559 6.68802C1.68582 6.46825 1.56235 6.17018 1.56235 5.85938C1.56235 5.54857 1.68582 5.2505 1.90559 5.03073C2.12536 4.81096 2.42343 4.6875 2.73423 4.6875H6.22485C6.29336 4.68781 6.36074 4.67002 6.42017 4.63594L8.43267 3.48438C8.84673 3.25 9.31392 3.125 9.79048 3.125H11.328V1.17188C11.328 0.861074 11.4514 0.563003 11.6712 0.343234C11.891 0.123465 12.1891 0 12.4999 0C12.8107 0 13.1087 0.123465 13.3285 0.343234C13.5483 0.563003 13.6717 0.861074 13.6717 1.17188ZM18.2733 14.4172C18.7186 14.6281 19.3952 14.8438 20.3124 14.8438C21.2295 14.8438 21.9061 14.6281 22.3514 14.4172L20.3124 9.88594L18.2733 14.4172ZM2.64829 14.4172C3.0936 14.6281 3.77017 14.8438 4.68735 14.8438C5.60454 14.8438 6.2811 14.6281 6.72642 14.4172L4.68735 9.88594L2.64829 14.4172Z" fill="black"/>
</svg>
