<svg width="25" height="25" viewBox="0 0 25 25" fill="none" xmlns="http://www.w3.org/2000/svg">
<path d="M21.0938 2.34375H3.90625C3.49185 2.34375 3.09442 2.50837 2.8014 2.8014C2.50837 3.09442 2.34375 3.49185 2.34375 3.90625V21.0938C2.34375 21.5082 2.50837 21.9056 2.8014 22.1986C3.09442 22.4916 3.49185 22.6562 3.90625 22.6562H21.0938C21.5082 22.6562 21.9056 22.4916 22.1986 22.1986C22.4916 21.9056 22.6562 21.5082 22.6562 21.0938V3.90625C22.6562 3.49185 22.4916 3.09442 22.1986 2.8014C21.9056 2.50837 21.5082 2.34375 21.0938 2.34375ZM9.375 17.1875C9.375 17.3947 9.29269 17.5934 9.14618 17.7399C8.99966 17.8864 8.80095 17.9688 8.59375 17.9688C8.38655 17.9688 8.18784 17.8864 8.04132 17.7399C7.89481 17.5934 7.8125 17.3947 7.8125 17.1875V10.9375C7.8125 10.7303 7.89481 10.5316 8.04132 10.3851C8.18784 10.2386 8.38655 10.1562 8.59375 10.1562C8.80095 10.1562 8.99966 10.2386 9.14618 10.3851C9.29269 10.5316 9.375 10.7303 9.375 10.9375V17.1875ZM8.59375 9.375C8.36198 9.375 8.13541 9.30627 7.94269 9.1775C7.74998 9.04874 7.59978 8.86571 7.51108 8.65158C7.42238 8.43745 7.39918 8.20182 7.44439 7.9745C7.48961 7.74718 7.60122 7.53837 7.76511 7.37448C7.929 7.21059 8.13781 7.09898 8.36513 7.05377C8.59245 7.00855 8.82807 7.03176 9.04221 7.12045C9.25634 7.20915 9.43936 7.35935 9.56813 7.55207C9.6969 7.74478 9.76562 7.97135 9.76562 8.20312C9.76562 8.51393 9.64216 8.812 9.42239 9.03177C9.20262 9.25154 8.90455 9.375 8.59375 9.375ZM17.9688 17.1875C17.9688 17.3947 17.8864 17.5934 17.7399 17.7399C17.5934 17.8864 17.3947 17.9688 17.1875 17.9688C16.9803 17.9688 16.7816 17.8864 16.6351 17.7399C16.4886 17.5934 16.4062 17.3947 16.4062 17.1875V13.6719C16.4062 13.1539 16.2005 12.6571 15.8342 12.2908C15.4679 11.9245 14.9711 11.7188 14.4531 11.7188C13.9351 11.7188 13.4383 11.9245 13.0721 12.2908C12.7058 12.6571 12.5 13.1539 12.5 13.6719V17.1875C12.5 17.3947 12.4177 17.5934 12.2712 17.7399C12.1247 17.8864 11.926 17.9688 11.7188 17.9688C11.5115 17.9688 11.3128 17.8864 11.1663 17.7399C11.0198 17.5934 10.9375 17.3947 10.9375 17.1875V10.9375C10.9385 10.7461 11.0096 10.5618 11.1375 10.4194C11.2654 10.277 11.4411 10.1866 11.6312 10.1651C11.8214 10.1437 12.0128 10.1928 12.1692 10.3031C12.3255 10.4134 12.4359 10.5773 12.4795 10.7637C13.008 10.4052 13.6242 10.1974 14.2619 10.1626C14.8995 10.1279 15.5347 10.2675 16.099 10.5665C16.6633 10.8654 17.1355 11.3125 17.465 11.8596C17.7944 12.4067 17.9685 13.0332 17.9688 13.6719V17.1875Z" fill="black"/>
</svg>
