<svg width="25" height="25" viewBox="0 0 25 25" fill="none" xmlns="http://www.w3.org/2000/svg">
<path d="M12.4349 20.7927L12.487 6.16248M19.863 5.92863L21.1182 5.90311L21.014 18.7328C18.096 18.7527 15.203 19.2731 12.4609 20.2713C9.91821 19.3734 7.29269 18.5828 4.06405 18.5765L3.93384 5.79894L5.23384 5.98175M5.23748 4.20728L5.21144 17.4542C8.12186 17.688 10.2114 18.6604 12.4625 19.4875C14.8349 18.287 17.3318 17.9573 19.8406 17.7151L19.8667 4.20728C17.4578 4.238 14.9594 5.35884 12.487 6.163C10.1099 5.47655 8.10832 4.46144 5.23748 4.20728Z" stroke="black" stroke-linecap="round" stroke-linejoin="round"/>
<path d="M15.5427 5.10779L15.6942 9.60466L14.8859 8.77029L14.1036 9.70935L14.0005 5.64373" stroke="black" stroke-linecap="round" stroke-linejoin="round"/>
<path d="M21.1094 6.96875L22.1355 6.94635V20.1672C18.7438 19.8651 15.7303 20.5422 12.4349 20.7932C9.27998 20.2108 6.07087 19.9745 2.86462 20.0885V7.05052L3.9464 7.04895" stroke="black" stroke-linecap="round" stroke-linejoin="round"/>
</svg>
