<svg width="25" height="25" viewBox="0 0 25 25" fill="none" xmlns="http://www.w3.org/2000/svg">
<path d="M20.3125 5.07813H17.8145L16.6016 3.25586C16.4944 3.09519 16.3491 2.96351 16.1787 2.87253C16.0084 2.78155 15.8181 2.73409 15.625 2.73438H9.375C9.18185 2.73409 8.99163 2.78155 8.82126 2.87253C8.65088 2.96351 8.50563 3.09519 8.39844 3.25586L7.18457 5.07813H4.6875C3.9623 5.07813 3.2668 5.36621 2.754 5.87901C2.24121 6.3918 1.95313 7.0873 1.95312 7.8125V18.75C1.95312 19.4752 2.24121 20.1707 2.754 20.6835C3.2668 21.1963 3.9623 21.4844 4.6875 21.4844H20.3125C20.6716 21.4844 21.0272 21.4136 21.3589 21.2762C21.6906 21.1388 21.9921 20.9374 22.246 20.6835C22.4999 20.4296 22.7013 20.1282 22.8387 19.7964C22.9761 19.4647 23.0469 19.1091 23.0469 18.75V7.8125C23.0469 7.45342 22.9761 7.09785 22.8387 6.7661C22.7013 6.43435 22.4999 6.13292 22.246 5.87901C21.9921 5.6251 21.6906 5.42368 21.3589 5.28627C21.0272 5.14885 20.6716 5.07813 20.3125 5.07813ZM20.7031 18.75C20.7031 18.8536 20.662 18.953 20.5887 19.0262C20.5155 19.0995 20.4161 19.1406 20.3125 19.1406H4.6875C4.5839 19.1406 4.48454 19.0995 4.41129 19.0262C4.33803 18.953 4.29688 18.8536 4.29688 18.75V7.8125C4.29688 7.7089 4.33803 7.60954 4.41129 7.53629C4.48454 7.46303 4.5839 7.42188 4.6875 7.42188H7.8125C8.00565 7.42216 8.19587 7.3747 8.36624 7.28372C8.53662 7.19274 8.68187 7.06106 8.78906 6.90039L10.002 5.07813H14.9971L16.2109 6.90039C16.3181 7.06106 16.4634 7.19274 16.6338 7.28372C16.8041 7.3747 16.9944 7.42216 17.1875 7.42188H20.3125C20.4161 7.42188 20.5155 7.46303 20.5887 7.53629C20.662 7.60954 20.7031 7.7089 20.7031 7.8125V18.75ZM12.5 8.20313C11.5729 8.20313 10.6666 8.47804 9.89576 8.99311C9.12491 9.50818 8.5241 10.2403 8.16932 11.0968C7.81453 11.9533 7.7217 12.8958 7.90257 13.8051C8.08344 14.7144 8.52988 15.5496 9.18544 16.2052C9.841 16.8607 10.6762 17.3072 11.5855 17.4881C12.4948 17.6689 13.4373 17.5761 14.2938 17.2213C15.1504 16.8665 15.8824 16.2657 16.3975 15.4949C16.9126 14.724 17.1875 13.8177 17.1875 12.8906C17.1862 11.6478 16.6919 10.4563 15.8131 9.57749C14.9343 8.69869 13.7428 8.20442 12.5 8.20313ZM12.5 15.2344C12.0365 15.2344 11.5833 15.0969 11.1979 14.8394C10.8125 14.5818 10.5121 14.2158 10.3347 13.7875C10.1573 13.3593 10.1109 12.888 10.2013 12.4334C10.2917 11.9787 10.5149 11.5611 10.8427 11.2333C11.1705 10.9056 11.5881 10.6823 12.0428 10.5919C12.4974 10.5015 12.9686 10.5479 13.3969 10.7253C13.8252 10.9027 14.1912 11.2031 14.4488 11.5885C14.7063 11.9739 14.8438 12.4271 14.8438 12.8906C14.8437 13.5122 14.5968 14.1084 14.1573 14.5479C13.7177 14.9874 13.1216 15.2344 12.5 15.2344Z" fill="black"/>
</svg>
