<svg width="25" height="25" viewBox="0 0 25 25" fill="none" xmlns="http://www.w3.org/2000/svg">
<path d="M23.3959 6.25002C22.5938 6.6146 21.7292 6.85419 20.8334 6.96877C21.75 6.41669 22.4584 5.54169 22.7917 4.4896C21.9271 5.01044 20.9688 5.37502 19.9584 5.58335C19.1354 4.68752 17.9792 4.16669 16.6667 4.16669C14.2188 4.16669 12.2188 6.16669 12.2188 8.63544C12.2188 8.9896 12.2604 9.33335 12.3334 9.65627C8.62502 9.46877 5.32294 7.68752 3.12502 4.9896C2.7396 5.64585 2.52085 6.41669 2.52085 7.22919C2.52085 8.78127 3.3021 10.1563 4.51044 10.9375C3.77085 10.9375 3.08335 10.7292 2.47919 10.4167V10.4479C2.47919 12.6146 4.02085 14.4271 6.06252 14.8334C5.40703 15.0127 4.71887 15.0377 4.0521 14.9063C4.33503 15.7943 4.88912 16.5713 5.6365 17.1281C6.38387 17.6849 7.28694 17.9934 8.21877 18.0104C6.63922 19.2609 4.68127 19.9368 2.66669 19.9271C2.31252 19.9271 1.95835 19.9063 1.60419 19.8646C3.58335 21.1354 5.93752 21.875 8.45835 21.875C16.6667 21.875 21.1771 15.0625 21.1771 9.15627C21.1771 8.95835 21.1771 8.77085 21.1667 8.57294C22.0417 7.94794 22.7917 7.15627 23.3959 6.25002Z" fill="black"/>
</svg>
